# xmcd CD database file
#
# Track frame offsets:
#	150
#	28890
#	53830
#	86972
#	107792
#	123677
#	143075
#	154515
#	184057
#	197472
#	229207
#	239610
#	261740
#	277680
#
# Disc length: 4113 seconds
#
# Revision: 0
# Processed by: cddbd v1.4PL0 Copyright (c) Steve Scherf et al.
# Submitted via: CDex 1.50beta9
#
DISCID=cc100f0e
DTITLE=Drowsy Maggie - The Essential Irish Collection
DYEAR=1900
DGENRE=Country
TTITLE0=Miss McLeod's Reel - Whiskey In The Jar - I'll Tell Me Ma - Muirsheen Durkin
TTITLE1=Lord Of The Dance - Gypsy Rover
TTITLE2=Boys Of The County Armagh - Black Velvet Band - Wild Rover
TTITLE3=Danny Boy
TTITLE4=Higgins Hornpipe - Lanigans Ball - Drowsy Maggies
TTITLE5=Leaving Of Liverpool - Roddy McCauley
TTITLE6=Irish Rover
TTITLE7=Patsy McCann - Far Away In Australia - Spancil Hill
TTITLE8=Molly Malone
TTITLE9=Maggie - Red Is The Rose - After All These Years
TTITLE10=Irish Washerwoman - Captain Pugwash
TTITLE11=Fields Of Anthenry
TTITLE12=Hills Of Donegal
TTITLE13=Holy Ground - Mason's Apron - Kneel Row - Scotland The Brave - Minstrel Boy - McNamaras Band - Peter Street
EXTD=
EXTT0=
EXTT1=
EXTT2=
EXTT3=
EXTT4=
EXTT5=
EXTT6=
EXTT7=
EXTT8=
EXTT9=
EXTT10=
EXTT11=
EXTT12=
EXTT13=
PLAYORDER=
